HIERARCHY
ROOT hip
{
	OFFSET 0.000000 0.000000 0.000000 
	CHANNELS 6 Xposition Yposition Zposition Xrotation Zrotation Yrotation
	JOINT abdomen
	{
		OFFSET 0.000000 3.402643 0.000000 
		CHANNELS 3 Xrotation Zrotation Yrotation
		JOINT chest
		{
			OFFSET 0.000000 8.438565 -0.680529 
			CHANNELS 3 Xrotation Zrotation Yrotation
			JOINT neck
			{
				OFFSET 0.000000 10.207942 -0.272212 
				CHANNELS 3 Xrotation Zrotation Yrotation
				JOINT head
				{
					OFFSET 0.000000 3.130431 0.000000 
					CHANNELS 3 Xrotation Zrotation Yrotation
					End Site
					{
						OFFSET 0.000000 3.130435 0.000000 
					}
				}
			}
			JOINT lCollar
			{
				OFFSET 3.470700 6.669187 -0.816635 
				CHANNELS 3 Yrotation Zrotation Xrotation
				JOINT lShldr
				{
					OFFSET 3.198488 0.000000 0.000000 
					CHANNELS 3 Zrotation Yrotation Xrotation
					JOINT lForeArm
					{
						OFFSET 10.139888 0.000000 0.000000 
						CHANNELS 3 Yrotation Zrotation Xrotation
						JOINT lHand
						{
							OFFSET 8.370511 0.000000 0.000000 
							CHANNELS 3 Zrotation Yrotation Xrotation
							End Site
							{
								OFFSET 4.083176 0.000000 0.000000 
							}
						}
					}
				}
			}
			JOINT rCollar
			{
				OFFSET -3.470700 6.669187 -0.816635 
				CHANNELS 3 Yrotation Zrotation Xrotation
				JOINT rShldr
				{
					OFFSET -3.198488 0.000000 0.000000 
					CHANNELS 3 Zrotation Yrotation Xrotation
					JOINT rForeArm
					{
						OFFSET -10.139888 0.000000 0.000000 
						CHANNELS 3 Yrotation Zrotation Xrotation
						JOINT rHand
						{
							OFFSET -5.570512 0.000000 0.000000 
							CHANNELS 3 Zrotation Yrotation Xrotation
							End Site
							{
								OFFSET -4.083176 0.000000 0.000000 
							}
						}
					}
				}
			}
		}
	}
	JOINT lThigh
	{
		OFFSET 5.308129 -1.633274 1.361059 
		CHANNELS 3 Xrotation Zrotation Yrotation
		JOINT lShin
		{
			OFFSET -2.041588 -20.007561 0.000000 
			CHANNELS 3 Xrotation Zrotation Yrotation
			JOINT lFoot
			{
				OFFSET 0.000000 -19.190928 -1.224953 
				CHANNELS 3 Xrotation Yrotation Zrotation
				End Site
				{
					OFFSET 0.000000 -2.449906 4.627600 
				}
			}
		}
	}
	JOINT rThigh
	{
		OFFSET -5.308129 -1.633274 1.361059 
		CHANNELS 3 Xrotation Zrotation Yrotation
		JOINT rShin
		{
			OFFSET 2.041588 -20.007561 0.000000 
			CHANNELS 3 Xrotation Zrotation Yrotation
			JOINT rFoot
			{
				OFFSET 0.000000 -19.190928 -1.224953 
				CHANNELS 3 Xrotation Yrotation Zrotation
				End Site
				{
					OFFSET 0.000000 -2.449906 4.627600 
				}
			}
		}
	}
}
MOTION
Frames: 13
Frame Time: 0.016667
-11.372804 49.038189 65.882576 11.030686 24.101213 62.931995 43.567463 -8.775151 -5.674735 -20.839844 0.000000 0.000000 0.837214 1.170845 34.227692 8.603792 -1.684224 0.126603 -4.754609 -0.109183 -0.002653 -42.103294 6.751893 -8.856912 -45.177612 -12.130302 13.837251 -177.592697 142.626038 185.543289 4.754609 0.109183 -0.002672 49.383160 14.313334 23.171125 132.777756 49.753094 -32.098522 142.688263 -155.011337 -184.140045 -9.044387 32.658646 25.986259 23.420990 -10.532881 4.027918 33.189281 -11.033246 1.201265 -13.464154 -29.835981 -6.680584 16.104126 -5.126691 2.327161 28.549255 -6.796000 18.322147 
-8.167578 43.851086 64.795105 10.328660 20.501579 57.344772 41.932327 -7.139445 -3.014109 -20.839844 0.000000 0.000000 -4.442079 -0.836539 38.689735 8.603792 -1.684224 0.126603 -4.754609 -0.109183 -0.002653 -44.534054 15.635539 -7.643629 -64.495300 -18.410789 5.684878 -174.356781 137.766937 192.855682 4.754609 0.109183 -0.002672 47.084381 12.208004 22.019978 133.702530 49.304638 -32.256870 144.244919 -156.296082 -184.800858 -8.272604 31.099159 27.556532 17.788773 -10.689022 4.792044 37.919197 -15.561119 1.363066 -35.465725 -29.089382 -0.849235 44.933670 -3.212179 2.753369 4.613112 -8.771192 0.770884 
-5.690233 39.280491 63.276001 10.824258 14.437191 51.617363 40.818024 -4.354205 0.596500 -20.839844 0.000000 0.000000 -11.382363 -1.534104 42.385456 8.603792 -1.684224 0.126603 -4.754609 -0.109183 -0.002653 -50.751213 16.719402 -9.259526 -77.114357 -16.800121 2.353065 -169.691071 136.399338 190.818848 4.754609 0.109183 -0.002672 45.568169 6.096340 18.531160 133.596939 45.952312 -31.701509 152.628235 -158.739197 -184.205292 -17.402761 33.808914 24.063353 27.640903 -11.580382 2.339466 28.343546 -12.849573 0.920555 -56.085384 -26.471291 2.866368 65.065918 -5.351442 1.105027 -8.117748 -7.361628 -4.439162 
-3.858019 35.564465 62.108330 12.683900 8.301213 50.738316 40.454857 -2.280084 1.102352 -20.839844 0.000000 0.000000 -16.976124 1.254071 42.557274 8.603792 -1.684224 0.126603 -4.754609 -0.109183 -0.002653 -53.734699 4.351684 -10.352408 -63.398453 -9.601298 9.049405 -165.116699 144.821701 183.547150 4.754609 0.109183 -0.002672 50.938828 -2.993976 14.488617 130.967407 41.218498 -31.625357 164.179184 -158.320023 -179.677536 -34.910545 38.678413 17.075502 48.784576 -11.085497 -1.557041 5.219226 -7.511353 -0.834492 -72.258057 -27.351408 5.522311 77.554924 -5.585711 0.873414 -10.983915 -5.711898 -4.260218 
-2.713332 32.945618 61.254795 13.935984 3.706285 55.118786 41.726589 -1.984637 -2.917893 -20.839844 0.000000 0.000000 -22.288021 7.065154 41.042675 8.603792 -1.684224 0.126603 -4.754609 -0.109183 -0.002653 -49.394005 -13.031069 -15.883991 -34.999371 0.739321 12.798322 -167.787476 157.798981 170.873627 4.754609 0.109183 -0.002672 61.464287 -5.642038 13.219442 126.259247 38.953033 -32.675442 166.020233 -155.529297 -171.237915 -51.415501 40.145889 9.854783 62.009144 -9.047469 -5.360385 -1.101303 -7.269864 -5.645969 -82.718254 -32.010021 8.042516 85.397537 -5.351468 0.695990 -12.320961 -4.890073 -3.595160 
-2.003329 31.288603 60.538155 13.867265 0.189620 58.738247 45.056168 -2.224027 -7.809961 -20.839844 0.000000 0.000000 -27.570951 13.161404 41.057983 8.603792 -1.684224 0.126603 -4.754609 -0.109183 -0.002653 -37.013367 -25.296654 -2.950485 -13.157040 14.606079 21.143869 -159.917313 153.192032 196.119919 4.754609 0.109183 -0.002672 67.429359 -2.727789 16.147177 124.919724 40.439144 -33.373817 163.751526 -156.495483 -169.120651 -63.173691 40.546776 5.168000 69.769882 -7.955640 -7.438575 -3.083209 -8.106227 -3.847113 -88.423477 -33.700191 10.346684 89.666138 -6.269530 -0.008072 -12.419703 -5.637150 -1.629454 
-1.379141 30.482069 60.055454 13.365239 -2.745947 59.357437 48.021370 -2.835602 -10.960497 -20.839844 0.000000 0.000000 -30.901718 17.409832 42.027832 8.603792 -1.684224 0.126603 -4.754609 -0.109183 -0.002653 -22.948915 -30.017063 -3.875010 -7.532876 13.933774 21.494219 -156.492874 148.758713 208.316620 4.754609 0.109183 -0.002672 66.440338 -0.705978 18.875566 127.907761 42.724648 -34.053902 164.330978 -158.249557 -173.165588 -70.303795 42.005783 2.460079 74.210144 -7.526814 -8.498271 -4.438599 -8.729046 -2.416449 -90.879158 -32.341610 11.214761 91.293961 -7.167752 -0.664318 -12.079630 -6.483175 0.181975 
-0.661482 30.338537 59.786774 12.927161 -5.292865 59.099304 49.201336 -4.261765 -12.206697 -20.839844 0.000000 0.000000 -32.216740 19.383104 42.368324 8.603792 -1.684224 0.126603 -4.754609 -0.109183 -0.002653 -13.457683 -30.786446 -9.855542 -7.846716 14.725081 21.410172 -154.992111 149.786758 205.937698 4.754609 0.109183 -0.002672 63.645294 -2.104886 18.285908 128.398987 43.325153 -33.849030 164.616531 -158.955261 -174.466690 -74.515457 42.984474 0.631998 76.554184 -7.097289 -8.894896 -5.889590 -8.833768 -2.002512 -91.379158 -31.365553 11.123708 91.318207 -7.236441 -0.848277 -12.041425 -6.969753 1.548174 
0.131271 30.753805 59.724464 12.144929 -7.085583 59.436012 49.289356 -5.018883 -12.580547 -20.839844 0.000000 0.000000 -32.400196 20.029980 43.122227 8.603792 -1.684224 0.126603 -4.754609 -0.109183 -0.002653 -11.147777 -30.793348 -10.766212 -9.762132 15.064945 23.963198 -155.525467 150.873306 202.826309 4.754609 0.109183 -0.002672 63.025707 -4.298991 16.222754 123.801483 43.060711 -31.153746 166.563171 -157.781189 -173.149368 -75.972710 42.702785 -0.369087 77.146255 -6.345434 -8.903464 -7.341150 -8.532431 -1.892694 -89.411728 -31.845135 10.328444 90.281441 -6.611258 -0.803305 -12.636365 -7.382770 2.972503 
0.918406 31.707458 59.893021 10.634723 -8.102513 59.929302 49.129875 -4.816941 -12.661325 -20.839844 0.000000 0.000000 -32.210487 21.133064 44.507355 8.603792 -1.684224 0.126603 -4.754609 -0.109183 -0.002653 -14.206516 -28.480539 -8.432722 -11.268554 14.786625 25.213259 -157.378571 151.014313 201.888321 4.754609 0.109183 -0.002672 64.014923 -3.593521 15.173115 117.278870 42.684280 -26.626740 172.388107 -154.487808 -173.375198 -74.599937 42.445496 -0.421589 75.905685 -5.544499 -8.777688 -8.508849 -8.279554 -1.947467 -84.349403 -32.322521 8.457255 88.072571 -5.478415 -0.765287 -13.740140 -8.041606 4.842883 
1.631472 33.086601 60.231171 8.488579 -8.327052 60.362247 48.730267 -4.355962 -11.842209 -20.839844 0.000000 0.000000 -31.089958 21.853062 45.001072 8.603792 -1.684224 0.126603 -4.754609 -0.109183 -0.002653 -21.917469 -22.910671 -11.404091 -15.429232 14.129269 21.037321 -162.378342 154.679306 191.228882 4.754609 0.109183 -0.002672 64.812759 1.688051 16.168066 111.672318 42.695621 -22.767498 177.578659 -151.582367 -173.804504 -70.713135 43.076328 0.617979 72.888115 -5.296278 -8.887428 -8.784210 -8.719151 -1.994308 -77.247681 -32.614456 5.498103 84.982765 -3.574057 -0.543898 -15.249586 -7.955575 3.555280 
2.246973 34.643501 60.664318 6.387072 -7.774309 61.611679 47.658272 -4.097340 -9.573679 -20.839844 0.000000 0.000000 -28.857439 20.329193 42.999306 8.603792 -1.684224 0.126603 -4.754609 -0.109183 -0.002653 -34.020000 -15.419956 -25.039042 -25.514803 6.846154 11.775543 -173.626221 159.637848 162.871048 4.754609 0.109183 -0.002672 64.375404 11.069738 18.885328 110.621986 42.979652 -21.857374 178.849762 -149.444305 -174.296326 -65.104942 44.392662 3.132360 67.777596 -6.246356 -10.161986 -4.120227 -11.649861 -4.303799 -70.497269 -35.312283 2.992895 80.820221 -1.786760 1.760562 -5.680514 -4.689056 9.028739 
2.845117 36.104366 61.195034 5.074645 -6.780210 64.418457 45.861877 -4.701404 -5.285282 -20.839844 0.000000 0.000000 -26.156973 16.465820 36.712185 8.603792 -1.684224 0.126603 -4.754609 -0.109183 -0.002653 -47.587734 -9.158488 -18.818743 -33.701042 2.196522 13.485384 -170.777863 160.040848 166.154984 4.754609 0.109183 -0.002672 62.422272 23.416176 21.812695 115.436020 42.437519 -24.325018 177.162674 -147.936096 -175.488129 -59.329330 45.003811 6.181064 61.879105 -7.632146 -11.529974 1.933075 -15.635433 -7.150944 -63.836136 -39.344681 1.317070 76.800774 -1.854928 1.512565 2.141592 -4.594631 8.755024 
